<svg xmlns="http://www.w3.org/2000/svg" xmlns:svgjs="http://svgjs.com/svgjs" xmlns:xlink="http://www.w3.org/1999/xlink" width="288" height="288"><svg xmlns="http://www.w3.org/2000/svg" width="288" height="288" viewBox="0 0 50 50"><path fill="#fff" d="M 24.972656 8.238281 C 24.828125 8.242188 24.683594 8.292969 24.570312 8.382812 L 8.46875 20.949219 C 8.164062 21.183594 8.109375 21.625 8.347656 21.929688 C 8.585938 22.234375 9.027344 22.289062 9.332031 22.050781 L 10.300781 21.296875 L 10.300781 39.699219 C 10.300781 40.085938 10.613281 40.398438 11 40.398438 L 20.683594 40.398438 C 20.757812 40.414062 20.835938 40.414062 20.910156 40.398438 L 29.082031 40.398438 C 29.15625 40.414062 29.234375 40.414062 29.3125 40.398438 L 39 40.398438 C 39.386719 40.398438 39.699219 40.085938 39.699219 39.699219 L 39.699219 21.296875 L 40.667969 22.050781 C 40.867188 22.207031 41.132812 22.242188 41.363281 22.148438 C 41.59375 22.054688 41.757812 21.84375 41.792969 21.597656 C 41.828125 21.347656 41.726562 21.101562 41.53125 20.949219 L 36.199219 16.789062 L 36.199219 11.699219 L 32 11.699219 L 32 13.511719 L 25.429688 8.382812 C 25.300781 8.285156 25.140625 8.230469 24.972656 8.238281 Z M 25 9.824219 L 38.300781 20.203125 L 38.300781 39 L 29.898438 39 L 29.898438 25.699219 L 20.101562 25.699219 L 20.101562 39 L 11.699219 39 L 11.699219 20.203125 Z M 33.398438 13.101562 L 34.800781 13.101562 L 34.800781 15.695312 L 33.398438 14.601562 Z M 21.5 27.101562 L 28.5 27.101562 L 28.5 39 L 21.5 39 Z M 21.5 27.101562 " class="color000 svgShape"/></svg></svg>